<svg id="Group_3596" data-name="Group 3596" xmlns="http://www.w3.org/2000/svg" width="30" height="30" viewBox="0 0 30 30">
  <g id="vuesax_outline_star" data-name="vuesax/outline/star">
    <g id="vuesax_outline_star-2" data-name="vuesax/outline/star">
      <g id="star">
        <path id="Vector" d="M20.513,26.687a5.216,5.216,0,0,1-2.574-.837L14.2,23.637a1.576,1.576,0,0,0-.761-.169,1.521,1.521,0,0,0-.751.169L8.939,25.85a5.153,5.153,0,0,1-2.567.834,2.577,2.577,0,0,1-1.534-.472c-.582-.431-1.472-1.525-.888-4.013l.888-3.837a1.764,1.764,0,0,0-.4-1.387l-3.1-3.1C-.213,12.325-.087,11,.125,10.35s.892-1.8,3.038-2.162l3.988-.663a1.772,1.772,0,0,0,1.074-.8l2.213-4.412C11.438.3,12.747,0,13.439,0s2,.3,3,2.313l2.2,4.4a1.846,1.846,0,0,0,1.087.8l3.988.663c2.176.365,2.837,1.511,3.038,2.162s.313,1.986-1.213,3.525l-3.1,3.113a1.8,1.8,0,0,0-.4,1.387l.888,3.837c.574,2.5-.31,3.585-.888,4.013A2.556,2.556,0,0,1,20.513,26.687Zm-7.074-5.1a3.415,3.415,0,0,1,1.712.438l3.737,2.212a3.268,3.268,0,0,0,1.609.571.745.745,0,0,0,.429-.108c.255-.182.453-.836.175-2.076l-.888-3.837a3.676,3.676,0,0,1,.9-3.138l3.1-3.1c.6-.6.888-1.211.763-1.626s-.724-.752-1.563-.888l-3.987-.663a3.672,3.672,0,0,1-2.45-1.812l-2.2-4.4c-.4-.8-.9-1.275-1.337-1.275s-.939.476-1.325,1.275L9.9,7.562A3.672,3.672,0,0,1,7.45,9.375l-3.975.663c-.839.135-1.423.467-1.563.888s.147,1.023.763,1.626l3.1,3.1a3.64,3.64,0,0,1,.9,3.138l-.887,3.837C5.5,23.859,5.7,24.514,5.963,24.7a.722.722,0,0,0,.416.1A3.391,3.391,0,0,0,8,24.237l3.737-2.212A3.327,3.327,0,0,1,13.439,21.588Z" transform="translate(1.562 1.65)" fill="#292d32"/>
        <path id="Vector-2" data-name="Vector" d="M30,0V30H0V0Z" fill="none" opacity="0"/>
      </g>
    </g>
  </g>
</svg>
